<svg width="14" height="18" viewBox="0 0 14 18" version="1.1" xmlns="http://www.w3.org/2000/svg" xmlns:xlink="http://www.w3.org/1999/xlink">
<g id="Canvas" fill="none">
<path id="Vector" d="M 12 6.14483C 12 10.9241 6 15.0207 6 15.0207C 6 15.0207 0 10.9241 0 6.14483C 2.37122e-08 4.51512 0.632141 2.95216 1.75736 1.79978C 2.88258 0.6474 4.4087 -1.01739e-08 6 -1.01739e-08C 7.5913 -1.01739e-08 9.11742 0.6474 10.2426 1.79978C 11.3679 2.95216 12 4.51512 12 6.14483Z" transform="translate(1 1)" stroke-width="2" stroke-linecap="round" stroke-linejoin="round" stroke="#B1B1E5"/>
<path id="Vector_2" d="M 4 2.04828C 4 3.17951 3.10457 4.09655 2 4.09655C 0.89543 4.09655 0 3.17951 0 2.04828C 0 0.917044 0.89543 0 2 0C 3.10457 0 4 0.917044 4 2.04828Z" transform="translate(5 5.09656)" stroke-width="2" stroke-linecap="round" stroke-linejoin="round" stroke="#B1B1E5"/>
</g>
</svg>
