<svg width="92" height="81" viewBox="0 0 92 81" version="1.1" xmlns="http://www.w3.org/2000/svg" xmlns:xlink="http://www.w3.org/1999/xlink">
<g id="Canvas" fill="none">
<g id="Ellipse">
<ellipse cx="10.6585" cy="18.9931" rx="10.6585" ry="18.9931" fill="white"/>
<path d="M 20.3171 18.9931C 20.3171 24.0991 19.1535 28.6723 17.3232 31.9339C 15.475 35.2273 13.0789 36.9862 10.6585 36.9862C 8.23819 36.9862 5.84206 35.2273 3.99388 31.9339C 2.16355 28.6723 1 24.0991 1 18.9931C 1 13.8871 2.16355 9.31391 3.99388 6.05234C 5.84206 2.75895 8.23819 1 10.6585 1C 13.0789 1 15.475 2.75895 17.3232 6.05234C 19.1535 9.31391 20.3171 13.8871 20.3171 18.9931Z" stroke-width="2" stroke="#5152B7"/>
</g>
<g id="Ellipse_2" transform="translate(70.6829 0)">
<ellipse cx="10.6585" cy="18.9931" rx="10.6585" ry="18.9931" fill="white"/>
<path d="M 20.3171 18.9931C 20.3171 24.0991 19.1535 28.6723 17.3232 31.9339C 15.475 35.2273 13.0789 36.9862 10.6585 36.9862C 8.23819 36.9862 5.84206 35.2273 3.99388 31.9339C 2.16355 28.6723 1 24.0991 1 18.9931C 1 13.8871 2.16355 9.31391 3.99388 6.05234C 5.84206 2.75895 8.23819 1 10.6585 1C 13.0789 1 15.475 2.75895 17.3232 6.05234C 19.1535 9.31391 20.3171 13.8871 20.3171 18.9931Z" stroke-width="2" stroke="#5152B7"/>
</g>
<path id="Ellipse 2" d="M 82.4634 21.7862C 82.4634 6.36032 62.9483 0 40.9512 0C 18.9541 0 0 6.36032 0 21.7862" transform="translate(5.60986 59.2138)" stroke-width="2" stroke="#5152B7"/>
</g>
</svg>