<svg width="17" height="15" viewBox="0 0 17 15" version="1.1" xmlns="http://www.w3.org/2000/svg" xmlns:xlink="http://www.w3.org/1999/xlink">
<g id="Canvas" fill="none">
<path id="Vector" d="M 10.6667 4.09655L 10.6667 2.73103C 10.6667 2.00672 10.3857 1.31207 9.88562 0.799902C 9.38552 0.287734 8.70724 0 8 0L 2.66667 0C 1.95942 0 1.28115 0.287734 0.781049 0.799902C 0.280952 1.31207 0 2.00672 0 2.73103L 0 4.09655" transform="translate(1 9.1931)" stroke-width="2" stroke-linecap="round" stroke-linejoin="round" stroke="#B1B1E5"/>
<path id="Vector_2" d="M 5.33333 2.73103C 5.33333 4.23934 4.13943 5.46207 2.66667 5.46207C 1.19391 5.46207 0 4.23934 0 2.73103C 0 1.22273 1.19391 0 2.66667 0C 4.13943 0 5.33333 1.22273 5.33333 2.73103Z" transform="translate(3.66669 1)" stroke-width="2" stroke-linecap="round" stroke-linejoin="round" stroke="#B1B1E5"/>
<path id="Vector_3" d="M 2 4.00779L 2 2.64228C 1.99956 2.03717 1.8029 1.44934 1.44091 0.971098C 1.07892 0.492854 0.572086 0.151277 0 7.81355e-08" transform="translate(13.6667 9.28186)" stroke-width="2" stroke-linecap="round" stroke-linejoin="round" stroke="#B1B1E5"/>
<path id="Vector_4" d="M 0 7.81355e-08C 0.57361 0.150413 1.08202 0.492065 1.44509 0.971095C 1.80816 1.45012 2.00523 2.03928 2.00523 2.64569C 2.00523 3.2521 1.80816 3.84126 1.44509 4.32029C 1.08202 4.79932 0.57361 5.14097 0 5.29138" transform="translate(11 1.08876)" stroke-width="2" stroke-linecap="round" stroke-linejoin="round" stroke="#B1B1E5"/>
</g>
</svg>
